<?xml version="1.0" encoding="UTF-8"?>
<svg width="324px" height="284px" viewBox="0 0 324 284" version="1.1" xmlns="http://www.w3.org/2000/svg" xmlns:xlink="http://www.w3.org/1999/xlink">
    <g id="Page-1" stroke="none" stroke-width="1" fill="none" fill-rule="evenodd">
        <g id="Artboard" transform="translate(0.000000, -20.000000)" fill="#FAFAFA" fill-rule="nonzero">
            <g id="navgrid" transform="translate(0.000000, 20.000000)">
                <path d="M94.4997891,15.1875 L94.4997891,65.8125 C94.4997891,74.2004297 87.7002187,81 79.3122891,81 L15.1875,81 C6.79957031,81 0,74.2004297 0,65.8125 L0,15.1875 C0,6.79957031 6.79957031,0 15.1875,0 L79.3122891,0 C87.7002187,0 94.4997891,6.79957031 94.4997891,15.1875 Z M209.250211,167.0625 L209.250211,116.4375 C209.250211,108.04957 202.450641,101.25 194.062711,101.25 L129.937289,101.25 C121.549359,101.25 114.749789,108.04957 114.749789,116.4375 L114.749789,167.0625 C114.749789,175.45043 121.549359,182.25 129.937289,182.25 L194.062078,182.25 C202.450641,182.25 209.250211,175.45043 209.250211,167.0625 L209.250211,167.0625 Z M229.500211,15.1875 L229.500211,65.8125 C229.500211,74.2004297 236.299781,81 244.687711,81 L308.8125,81 C317.20043,81 324,74.2004297 324,65.8125 L324,15.1875 C324,6.79957031 317.20043,0 308.8125,0 L244.687711,0 C236.299781,0 229.500211,6.79957031 229.500211,15.1875 L229.500211,15.1875 Z M0,217.6875 L0,268.3125 C0,276.70043 6.79957031,283.5 15.1875,283.5 L79.3122891,283.5 C87.7002187,283.5 94.4997891,276.70043 94.4997891,268.3125 L94.4997891,217.6875 C94.4997891,209.29957 87.7002187,202.5 79.3122891,202.5 L15.1875,202.5 C6.79957031,202.5 0,209.29957 0,217.6875 Z M244.687711,283.5 L308.8125,283.5 C317.20043,283.5 324,276.70043 324,268.3125 L324,217.6875 C324,209.29957 317.20043,202.5 308.8125,202.5 L244.687711,202.5 C236.299781,202.5 229.500211,209.29957 229.500211,217.6875 L229.500211,268.3125 C229.500211,276.70043 236.299781,283.5 244.687711,283.5 Z" id="Shape"></path>
            </g>
        </g>
    </g>
</svg>