<?xml version="1.0" encoding="utf-8"?>
<!-- Generator: Adobe Illustrator 23.0.1, SVG Export Plug-In . SVG Version: 6.00 Build 0)  -->
<svg version="1.0" id="Layer_1" xmlns="http://www.w3.org/2000/svg" xmlns:xlink="http://www.w3.org/1999/xlink" x="0px" y="0px"
	 viewBox="0 0 595.28 841.89" style="enable-background:new 0 0 595.28 841.89;" xml:space="preserve">
<style type="text/css">
	.st0{fill:#F2F1F1;}
	.st1{fill:#211616;}
	.st2{fill:#F2F1F1;stroke:#211616;stroke-width:13;stroke-miterlimit:10;}
	.st3{fill:none;}
</style>
<rect class="st0" width="595.28" height="841.89"/>
<polygon class="st1" points="0,492 595.28,589 595.28,841.89 0,841.89 "/>
<path class="st2" d="M524,617.68L524,617.68c-18.01,10.4-40.21,10.4-58.22,0h0c-18.01-10.4-29.11-29.62-29.11-50.42v0
	c0-20.8,11.1-40.02,29.11-50.42l0,0c18.01-10.4,40.21-10.4,58.22,0h0c18.01,10.4,29.11,29.62,29.11,50.42v0
	C553.11,588.06,542.01,607.28,524,617.68z"/>
<rect class="st3" width="595.28" height="841.89"/>
</svg>
